{"title":"Zorba The Greek [1964] 720p BRRip H264 AC3 - CODY","uid":8418183,"size":2562561442,"categoryP":"video","categoryS":"hd___movies","magnet":"?xt=urn:btih:fdf4fee80851c45a856696f59764725b68a67447&amp;dn=Zorba+The+Greek+%5B1964%5D+720p+BRRip+H264+AC3+-+CODY&amp;tr=udp%3A%2F%2Ftracker.openbittorrent.com%3A80&amp;tr=udp%3A%2F%2Fopen.demonii.com%3A1337&amp;tr=udp%3A%2F%2Ftracker.coppersurfer.tk%3A6969&amp;tr=udp%3A%2F%2Fexodus.desync.com%3A6969","seeders":0,"leechers":0,"uploader":"CODYBOSS1969","files":5,"time":1367104205,"description":"General\nComplete name                            : Zorba The Greek [1964] 720p BRRip H264 AC3 - CODY.mp4\nFormat                                   : MPEG-4\nFormat profile                           : Base Media\nCodec ID                                 : isom\nFile size                                : 2.39 GiB\nDuration                                 : 2h 22mn\nOverall bit rate mode                    : Variable\nOverall bit rate                         : 2 403 Kbps\nEncoded date                             : UTC 2012-10-20 13:17:55\n\nVideo\nID                                       : 1\nFormat                                   : AVC\nFormat/Info                              : Advanced Video Codec\nFormat profile                           : &lt;a class=&quot;__cf_email__&quot; href=&quot;/cdn-cgi/l/email-protection&quot; data-cfemail=&quot;fcb4959b94bcb0c8d2cd&quot;&gt;[email&amp;#160;protected]&lt;/a&gt;&lt;script data-cfhash='f9e31' type=&quot;text/javascript&quot;&gt;\n/* &lt;![CDATA[ */!function(){try{var t=&quot;currentScript&quot;in document?document.currentScript:function(){for(var t=document.getElementsByTagName(&quot;script&quot;),e=t.length;e--;)if(t[e].getAttribute(&quot;data-cfhash&quot;))return t[e]}();if(t&amp;&amp;t.previousSibling){var e,r,n,i,c=t.previousSibling,a=c.getAttribute(&quot;data-cfemail&quot;);if(a){for(e=&quot;&quot;,r=parseInt(a.substr(0,2),16),n=2;a.length-n;n+=2)i=parseInt(a.substr(n,2),16)^r,e+=String.fromCharCode(i);e=document.createTextNode(e),c.parentNode.replaceChild(e,c)}t.parentNode.removeChild(t);}}catch(u){}}()/* ]]&gt; */&lt;/script&gt;\nFormat settings, CABAC                   : Yes\nFormat settings, ReFrames                : 5 frames\nCodec ID                                 : avc1\nCodec ID/Info                            : Advanced Video Coding\nDuration                                 : 2h 22mn\nBit rate mode                            : Variable\nBit rate                                 : 2 080 Kbps\nMaximum bit rate                         : 20.0 Mbps\nWidth                                    : 1 200 pixels\nHeight                                   : 720 pixels\nDisplay aspect ratio                     : 1.667\nFrame rate mode                          : Constant\nFrame rate                               : 23.976 fps\nColor space                              : YUV\nChroma subsampling                       : 4:2:0\nBit depth                                : 8 bits\nScan type                                : Progressive\nBits/(Pixel*Frame)                       : 0.100\nStream size                              : 2.07 GiB (87%)\nWriting library                          : x264 core 125 r2208 d9d2288\nEncoding settings                        : rc=2pass\nColor primaries                          : Generic film\n\nAudio\nID                                       : 2\nFormat                                   : AC-3\nFormat/Info                              : Audio Coding 3\nMode extension                           : CM (complete main)\nCodec ID                                 : ac-3\nDuration                                 : 2h 22mn\nBit rate mode                            : Constant\nBit rate                                 : 320 Kbps\nChannel(s)                               : 1 channel\nChannel positions                        : Front: C\nSampling rate                            : 48.0 KHz\nBit depth                                : 16 bits\nCompression mode                         : Lossy\nStream size                              : 325 MiB (13%)\n\nAudio language                           : English, Greek [some parts]\n\nIMDB link:                                &lt;a href=&quot; http://www.imdb.com/title/tt0057831/&quot; rel=&quot;nofollow&quot; target=&quot;_NEW&quot;&gt; http://www.imdb.com/title/tt0057831/&lt;/a&gt;\n\nSubtitles included                       : Romanian\n\nPlease seed at least 1,5:1 . This way this torrent has a chance to survive !\n\nThanks . Enjoy !!\t\t\n","torrent":{"xt":"urn:btih:fdf4fee80851c45a856696f59764725b68a67447","amp;dn":"Zorba+The+Greek+%5B1964%5D+720p+BRRip+H264+AC3+-+CODY","amp;tr":["udp%3A%2F%2Ftracker.openbittorrent.com%3A80","udp%3A%2F%2Fopen.demonii.com%3A1337","udp%3A%2F%2Ftracker.coppersurfer.tk%3A6969","udp%3A%2F%2Fexodus.desync.com%3A6969"],"infoHash":"fdf4fee80851c45a856696f59764725b68a67447","infoHashBuffer":{"type":"Buffer","data":[253,244,254,232,8,81,196,90,133,102,150,245,151,100,114,91,104,166,116,71]},"announce":[],"urlList":[]}}